{"title":"Naruto Shippuden 141 720p [160MB]","uid":5432065,"size":167649313,"categoryP":"video","categoryS":"other","magnet":"?xt=urn:btih:0676104d95cb1c990e71c088012824de9ad53b14&amp;dn=Naruto+Shippuden+141+720p+%5B160MB%5D&amp;tr=udp%3A%2F%2Ftracker.openbittorrent.com%3A80&amp;tr=udp%3A%2F%2Fopen.demonii.com%3A1337&amp;tr=udp%3A%2F%2Ftracker.coppersurfer.tk%3A6969&amp;tr=udp%3A%2F%2Fexodus.desync.com%3A6969","seeders":0,"leechers":0,"uploader":"devilart90","files":1,"time":1268462999,"description":"      Format : MPEG-4\n      Format profile : Base Media\n      Codec ID : isom\n      File size : 160 MiB\n      Duration : 23mn 30s\n      Overall bit rate : 951 Kbps\n      Encoded date : UTC 2010-02-25 03:33:56\n      Tagged date : UTC 2010-02-25 03:33:56\n      Xtra : WM/EncodedBy\n\n      Video #1\n      ID : 1\n      Format : AVC\n      Format/Info : Advanced Video Codec\n      Format profile : &lt;a class=&quot;__cf_email__&quot; href=&quot;/cdn-cgi/l/email-protection&quot; data-cfemail=&quot;fab2939d92bab6ced4ca&quot;&gt;[email&amp;#160;protected]&lt;/a&gt;&lt;script cf-hash='f9e31' type=&quot;text/javascript&quot;&gt;\n/* &lt;![CDATA[ */!function(){try{var t=&quot;currentScript&quot;in document?document.currentScript:function(){for(var t=document.getElementsByTagName(&quot;script&quot;),e=t.length;e--;)if(t[e].getAttribute(&quot;cf-hash&quot;))return t[e]}();if(t&amp;&amp;t.previousSibling){var e,r,n,i,c=t.previousSibling,a=c.getAttribute(&quot;data-cfemail&quot;);if(a){for(e=&quot;&quot;,r=parseInt(a.substr(0,2),16),n=2;a.length-n;n+=2)i=parseInt(a.substr(n,2),16)^r,e+=String.fromCharCode(i);e=document.createTextNode(e),c.parentNode.replaceChild(e,c)}}}catch(u){}}();/* ]]&gt; */&lt;/script&gt;\n      Format settings, CABAC : Yes\n      Format settings, ReFrames : 3 frames\n      Codec ID : avc1\n      Codec ID/Info : Advanced Video Coding\n      Duration : 23mn 30s\n      Bit rate mode : Variable\n      Bit rate : 890 Kbps\n      Maximum bit rate : 6 844 Kbps\n      Width : 1 280 pixels\n      Height : 720 pixels\n      Display aspect ratio : 16:9\n      Frame rate mode : Constant\n      Frame rate : 24.000 fps\n      Resolution : 24 bits\n      Colorimetry : 4:2:0\n      Scan type : Progressive\n      Bits/(Pixel*Frame) : 0.040\n      Stream size : 150 MiB (94%)\n      \n      Encoded date : UTC 2010-02-25 03:33:56\n      Tagged date : UTC 2010-02-25 03:34:01\n\n      Audio #2\n      ID : 2\n      Format : AAC\n      Format/Info : Advanced Audio Codec\n      Format version : Version 4\n      Format profile : LC\n      Format settings, SBR : Yes\n      Format settings, PS : No\n      Codec ID : 40\n      Duration : 23mn 24s\n      Bit rate mode : Variable\n      Bit rate : 58.4 Kbps\n      Maximum bit rate : 68.2 Kbps\n      Channel(s) : 2 channels\n      Channel positions : L R\n      Sampling rate : 48.0 KHz\n      Resolution : 16 bits\n      Stream size : 9.78 MiB (6%)\n      Title : English\n      Language : English\n      Encoded date : UTC 2010-02-25 03:34:01\n      Tagged date : UTC 2010-02-25 03:34:01","torrent":{"xt":"urn:btih:0676104d95cb1c990e71c088012824de9ad53b14","amp;dn":"Naruto+Shippuden+141+720p+%5B160MB%5D","amp;tr":["udp%3A%2F%2Ftracker.openbittorrent.com%3A80","udp%3A%2F%2Fopen.demonii.com%3A1337","udp%3A%2F%2Ftracker.coppersurfer.tk%3A6969","udp%3A%2F%2Fexodus.desync.com%3A6969"],"infoHash":"0676104d95cb1c990e71c088012824de9ad53b14","infoHashBuffer":{"type":"Buffer","data":[6,118,16,77,149,203,28,153,14,113,192,136,1,40,36,222,154,213,59,20]},"announce":[],"urlList":[]}}